{"asset":{"version":"2.0","generator":"Unity 2022.3.20f1 glTFast 6.0.1"},"nodes":[{"name":"Renderer_Avatar","mesh":0,"translation":[0.02,1.26,-117.057]},{"name":"Renderer_Avatar_Transparent","mesh":1},{"name":"HeadTop_End","translation":[7.06101844E-14,0.181316659,-2.98023224E-08],"rotation":[-0.074465245,-4.34864944E-08,-2.05032329E-08,0.9972236]},{"name":"LeftEye","translation":[0.03412298,0.08738319,0.0659482],"rotation":[-0.07016064,-8.36349656E-10,-3.424273E-08,0.9975357]},{"name":"RightEye","translation":[-0.0341228433,0.08732405,0.06595652],"rotation":[-0.07016064,-8.36349656E-10,-3.424273E-08,0.9975357]},{"name":"Head","children":[2,3,4],"translation":[-7.993606E-14,0.09079493,2.42143869E-08],"rotation":[-0.1597438,-0.288552731,0.110064752,0.937606037]},{"name":"Neck","children":[5],"translation":[7.771561E-15,0.124441177,-5.029142E-08],"rotation":[0.071732074,-0.150081888,0.0567743778,0.9844321]},{"name":"LeftHandThumb4","translation":[-5.62518835E-07,0.0337795131,-6.146729E-08],"rotation":[-0.03271897,0.0297099948,0.04319831,0.998088539]},{"name":"LeftHandThumb3","children":[7],"translation":[-2.21654773E-07,0.03116922,3.91155481E-08],"rotation":[0.000699408352,-0.0113912895,-0.0431185365,0.9990048]},{"name":"LeftHandThumb2","children":[8],"translation":[1.41561031E-07,0.0340793245,6.146729E-08],"rotation":[0.0168421343,-0.01186488,-0.3023368,0.9529785]},{"name":"LeftHandThumb1","children":[9],"translation":[-0.0166045912,0.0142988143,0.01593319],"rotation":[0.258938551,0.07705568,0.2755657,0.9225383]},{"name":"LeftHandIndex4","translation":[2.79396772E-08,0.0255887136,-4.47034836E-08],"rotation":[-0.06403238,0.04265812,-0.0306939241,0.996563137]},{"name":"LeftHandIndex3","children":[11],"translation":[2.66378379E-07,0.0283169877,2.05188542E-08],"rotation":[0.156114087,1.43051125E-06,0.0128354114,0.98765564]},{"name":"LeftHandIndex2","children":[12],"translation":[3.98997E-08,0.0322205573,1.66615166E-09],"rotation":[0.1609786,1.46031368E-06,0.01323533,0.986869156]},{"name":"LeftHandIndex1","children":[13],"translation":[-0.0213005282,0.08553486,0.0146123413],"rotation":[0.22582294,0.0193692762,0.0143174846,0.9738706]},{"name":"LeftHandMiddle4","translation":[8.195639E-08,0.0245852917,3.53902578E-08],"rotation":[-0.07933555,0.002267747,-0.0230239537,0.996579468]},{"name":"LeftHandMiddle3","children":[15],"translation":[1.32276568E-07,0.03219463,-1.10349049E-07],"rotation":[0.16840528,5.06639537E-07,0.013845684,0.9856206]},{"name":"LeftHandMiddle2","children":[16],"translation":[1.37976208E-09,0.03819378,-1.85681159E-09],"rotation":[0.216201872,3.12924385E-07,0.017775178,0.9761869]},{"name":"LeftHandMiddle1","children":[17],"translation":[-0.004846115,0.08406256,0.0107323825],"rotation":[0.21803388,0.0193970073,-0.01807654,0.975581]},{"name":"LeftHandRing4","translation":[4.656613E-09,0.0212512054,1.62981451E-08],"rotation":[-0.0159833618,0.003182606,0.020556286,0.9996559]},{"name":"LeftHandRing3","children":[19],"translation":[1.4292894E-07,0.02831651,1.03694475E-08],"rotation":[0.154363513,7.89761543E-07,0.0126912594,0.9879326]},{"name":"LeftHandRing2","children":[20],"translation":[3.94574329E-08,0.0303797275,-1.17872048E-07],"rotation":[0.18409124,6.2584877E-07,0.0151352584,0.9827926]},{"name":"LeftHandRing1","children":[21],"translation":[0.0167709328,0.0865633339,0.00875802],"rotation":[0.256401151,-0.0029177214,-0.003311872,0.966560364]},{"name":"LeftHandPinky4","translation":[6.33299351E-08,0.0133807659,8.800998E-08],"rotation":[-0.0394232981,0.0219431184,0.0104631744,0.9989269]},{"name":"LeftHandPinky3","children":[23],"translation":[2.92099358E-08,0.0176561568,1.21113814E-07],"rotation":[0.06375933,5.364418E-07,0.00524222851,0.997951567]},{"name":"LeftHandPinky2","children":[24],"translation":[-3.576972E-08,0.0276379716,1.15329655E-07],"rotation":[0.116733238,4.1723257E-07,0.009597422,0.993117]},{"name":"LeftHandPinky1","children":[25],"translation":[0.032583382,0.07914767,0.005490564],"rotation":[0.3260902,-0.00776608335,-0.03344095,0.9447151]},{"name":"LeftHand","children":[10,14,18,22,26],"translation":[-1.35041773E-07,0.257376224,3.548339E-07],"rotation":[0.00139828771,0.198606879,-0.01766894,0.979918957]},{"name":"LeftForeArm","children":[27],"translation":[-1.02684005E-07,0.268844217,-2.52837342E-08],"rotation":[0.07397319,-0.206203669,0.173015177,0.960246742]},{"name":"LeftArm","children":[28],"translation":[-1.86264515E-08,0.06534293,1.28522515E-07],"rotation":[0.583425641,-0.0538334437,-0.09643765,0.8046218]},{"name":"LeftShoulder","children":[29],"translation":[0.06222339,0.104911529,-0.012486673],"rotation":[0.480037063,0.502662957,-0.523964345,0.492296457]},{"name":"RightHandThumb4","translation":[8.7171793E-07,0.0337794647,-1.41561031E-07],"rotation":[-0.0327164754,-0.0297026262,-0.0432057865,0.998088539]},{"name":"RightHandThumb3","children":[31],"translation":[5.30853868E-08,0.0311694313,-2.23517418E-08],"rotation":[0.001525289,-0.0113271363,-0.0107314261,-0.9998771]},{"name":"RightHandThumb2","children":[32],"translation":[-1.2293458E-07,0.0340788141,-3.91155481E-08],"rotation":[-0.02211988,-0.0118643325,-0.377780646,-0.9255548]},{"name":"RightHandThumb1","children":[33],"translation":[0.016604783,0.0142988665,0.0159330554],"rotation":[-0.164565146,0.009478696,0.348368168,-0.9227503]},{"name":"RightHandIndex4","translation":[-3.0733645E-08,0.0255883262,1.67638063E-07],"rotation":[-0.06403391,-0.0426589549,0.0306887627,0.996563137]},{"name":"RightHandIndex3","children":[35],"translation":[-3.15334532E-08,0.0283163879,8.268454E-09],"rotation":[-0.141265109,2.08616285E-07,0.0116142491,-0.9899037]},{"name":"RightHandIndex2","children":[36],"translation":[-6.68484148E-08,0.03222103,-2.27353E-07],"rotation":[-0.173413217,1.78813963E-07,0.0142573286,-0.984746]},{"name":"RightHandIndex1","children":[37],"translation":[0.0213005785,0.08553479,0.014612237],"rotation":[-0.176683635,-0.01580161,0.117059037,-0.977154255]},{"name":"RightHandMiddle4","translation":[9.406358E-08,0.0245849043,9.126961E-08],"rotation":[-0.07933675,-0.00226921844,0.02302485,0.996579349]},{"name":"RightHandMiddle3","children":[39],"translation":[-4.08153653E-08,0.03219373,9.724896E-09],"rotation":[-0.119972281,2.6822093E-07,0.009863676,-0.9927283]},{"name":"RightHandMiddle2","children":[40],"translation":[-3.083731E-08,0.0381944329,9.977555E-09],"rotation":[-0.1758218,1.78813934E-07,0.0144553483,-0.9843159]},{"name":"RightHandMiddle1","children":[41],"translation":[0.004850776,0.0838231146,0.0106228143],"rotation":[-0.155771613,-0.0207053144,0.103966959,-0.982088268]},{"name":"RightHandRing4","translation":[1.11758709E-07,0.0212509334,-1.58324838E-08],"rotation":[-0.0159726087,-0.00316860015,-0.0205601435,0.999656]},{"name":"RightHandRing3","children":[43],"translation":[-2.830663E-08,0.0283168051,-1.11608315E-07],"rotation":[-0.0679514259,9.313225E-05,0.00237746537,-0.9976858]},{"name":"RightHandRing2","children":[44],"translation":[2.23016414E-08,0.0303795449,4.211296E-09],"rotation":[-0.231031969,5.960464E-08,0.0189943314,-0.972760737]},{"name":"RightHandRing1","children":[45],"translation":[-0.0167134833,0.08634701,0.008879151],"rotation":[-0.169240743,-0.0377598442,0.116363868,-0.9779526]},{"name":"RightHandPinky4","translation":[5.58793545E-08,0.013381375,-1.90921128E-08],"rotation":[-0.0394312665,-0.0219524857,-0.0104633924,0.998926342]},{"name":"RightHandPinky3","children":[47],"translation":[2.463144E-08,0.0176559743,1.21049879E-07],"rotation":[-0.08139165,-1.19209282E-07,0.00669155968,-0.996659756]},{"name":"RightHandPinky2","children":[48],"translation":[-8.372366E-09,0.0276383851,-2.32980071E-07],"rotation":[-0.10820926,-5.960464E-08,0.008896396,-0.994088352]},{"name":"RightHandPinky1","children":[49],"translation":[-0.0326050036,0.07897975,0.005533509],"rotation":[-0.17310591,-0.0305914618,0.06887988,-0.9820153]},{"name":"RightHand","children":[34,38,42,46,50],"translation":[2.23517418E-08,0.2573751,-3.77185643E-07],"rotation":[0.01124172,-0.224545121,-0.02021828,0.9741891]},{"name":"RightForeArm","children":[51],"translation":[-3.824249E-08,0.2688439,-1.06340288E-08],"rotation":[0.06317413,0.202320352,-0.1698614,0.9624046]},{"name":"RightArm","children":[52],"translation":[2.70083547E-08,0.06534296,2.104789E-07],"rotation":[0.580078244,0.07634194,0.0985814,0.804961443]},{"name":"RightShoulder","children":[53],"translation":[-0.0622232668,0.10491129,-0.012486673],"rotation":[-0.494731426,0.484554857,-0.5380726,-0.480546951]},{"name":"Spine2","children":[6,30,54],"translation":[3.73034936E-14,0.121621072,2.79396772E-08],"rotation":[0.09215053,-0.00097301614,-0.00626392756,0.9957249]},{"name":"Spine1","children":[55],"translation":[-8.134986E-15,0.09147466,-9.313226E-10],"rotation":[0.0311272051,-0.0005439223,-0.006697805,0.9994929]},{"name":"Spine","children":[56],"translation":[2.81923855E-12,0.09636257,4.84287739E-08],"rotation":[0.170718729,-0.003034726,0.0004956872,0.985315]},{"name":"LeftToe_End","translation":[-2.49856384E-08,0.08319714,-7.741619E-09],"rotation":[0.0162599068,0.708827734,-0.02440197,0.7047719]},{"name":"LeftToeBase","children":[58],"translation":[5.69853E-08,0.156572461,-8.7171793E-07],"rotation":[0.331765562,-0.0103294561,0.0261165518,0.942943752]},{"name":"LeftFoot","children":[59],"translation":[-5.075708E-08,0.449560225,3.7625432E-07],"rotation":[0.539105654,-0.0255591962,-0.0118190078,0.8417673]},{"name":"LeftLeg","children":[60],"translation":[-6.97582436E-10,0.447508574,9.313226E-09],"rotation":[-0.112131849,-0.03409508,0.00042183086,0.993108153]},{"name":"LeftUpLeg","children":[61],"translation":[0.09545617,-0.0195789449,0.002779666],"rotation":[-0.0171148237,0.183764011,-0.9826331,0.0192377418],"scale":[0.999995649,0.9999997,0.9999879]},{"name":"RightToe_End","translation":[6.513437E-08,0.0831960142,-1.565786E-08],"rotation":[0.01627301,-0.7089112,0.0244204924,0.704687]},{"name":"RightToeBase","children":[63],"translation":[-3.8795406E-08,0.156572863,8.34465E-07],"rotation":[0.324207753,0.0102249393,-0.02620417,0.945567667]},{"name":"RightFoot","children":[64],"translation":[-4.3597538E-08,0.449559063,-3.91155481E-07],"rotation":[0.4988262,-0.0100838682,0.008810953,0.866598666]},{"name":"RightLeg","children":[65],"translation":[4.45170372E-08,0.447508574,1.67638063E-08],"rotation":[-0.15078032,-0.0117629785,0.002243874,0.9884948]},{"name":"RightUpLeg","children":[66],"translation":[-0.09545597,-0.0195788257,0.00278965151],"rotation":[0.00134344981,0.09747832,-0.995222867,-0.005252479]},{"name":"Hips","children":[57,62,67],"translation":[-0.006894827,1.02819514,0.005979538],"rotation":[-0.1710954,-0.0482243858,-0.0103883212,0.984018743]},{"name":"Armature","children":[68]},{"name":"65d0eed63fb278052b0b2255","children":[0,1,69],"translation":[-1.66673291,1.04308152,-20.9853458]}],"buffers":[{"uri":"65d0eed63fb278052b0b2255.bin","byteLength":783816}],"bufferViews":[{"buffer":0,"byteLength":207840},{"buffer":0,"byteLength":10248,"byteOffset":207840},{"buffer":0,"byteLength":439360,"byteOffset":218088,"byteStride":40},{"buffer":0,"byteLength":87872,"byteOffset":657448,"byteStride":8},{"buffer":0,"byteLength":32080,"byteOffset":745320,"byteStride":40},{"buffer":0,"byteLength":6416,"byteOffset":777400,"byteStride":8}],"accessors":[{"bufferView":2,"componentType":5126,"count":10984,"type":"VEC3","max":[0.464161068,1.77396357,0.202506751],"min":[-0.464156717,0.002407074,-0.129161149]},{"bufferView":2,"componentType":5126,"count":10984,"type":"VEC3","byteOffset":12},{"bufferView":2,"componentType":5126,"count":10984,"type":"VEC4","byteOffset":24},{"bufferView":3,"componentType":5126,"count":10984,"type":"VEC2"},{"bufferView":0,"componentType":5125,"count":51960,"type":"SCALAR"},{"bufferView":4,"componentType":5126,"count":802,"type":"VEC3","max":[0.08277227,1.65114164,0.147171766],"min":[-0.08277227,1.61005926,-0.006809503]},{"bufferView":4,"componentType":5126,"count":802,"type":"VEC3","byteOffset":12},{"bufferView":4,"componentType":5126,"count":802,"type":"VEC4","byteOffset":24},{"bufferView":5,"componentType":5126,"count":802,"type":"VEC2"},{"bufferView":1,"componentType":5125,"count":2562,"type":"SCALAR"}],"materials":[{"name":"Material_Avatar","pbrMetallicRoughness":{"metallicFactor":0}},{"name":"Material_Avatar_Transparent","pbrMetallicRoughness":{"metallicFactor":0},"alphaMode":"BLEND"}],"meshes":[{"name":"SkinnedMesh_Avatar","primitives":[{"attributes":{"POSITION":0,"NORMAL":1,"TANGENT":2,"TEXCOORD_0":3},"indices":4,"material":0}]},{"name":"SkinnedMesh_Avatar_Transparent","primitives":[{"attributes":{"POSITION":5,"NORMAL":6,"TANGENT":7,"TEXCOORD_0":8},"indices":9,"material":1}]}],"scene":0,"scenes":[{"name":"65d0eed63fb278052b0b2255","nodes":[70]}]}